# xmcd CD database file
#
# Track frame offsets:
#	183
#	10223
#	24540
#	40270
#	56455
#	70618
#	82335
#	89390
#	98165
#	114605
#	128430
#	142280
#	157588
#	170960
#	186263
#	198360
#	207385
#	216053
#	230283
#	241283
#	253588
#	268030
#
# Disc length: 3709 seconds
#
# Revision: 2
# Processed by: cddbd v1.5.1PL0 Copyright (c) Steve Scherf et al.
# Submitted via: CDex 1.51
#
DISCID=370e7b16
DTITLE=Various Artist - kings of cajun
DYEAR=1992
DGENRE=
TTITLE0=nathan abshire- Les Filles Du Canada 
TTITLE1=balfa brothers orchestra- Acadien Two Step 
TTITLE2=austin pitre and the evangaline playboys- Triangle Special 
TTITLE3=joe bonsall and the orange playboys- French Fiddle Boogie 
TTITLE4=balfa brothers orchestra- Midnight Special 
TTITLE5=aldus roger and the lafatette playboys- Oson Two Step 
TTITLE6=nathan abshire- La Queue De Torture 
TTITLE7=bessyl duhon- Love Bridge Waltz 
TTITLE8=phil menard and his louisiana travellers- One Is A Lonely Number 
TTITLE9=don montoucet and the wandering aces- Fee Fee Ponchot 
TTITLE10=balfa brothers orchestra- Old Fashioned Two Step 
TTITLE11=boozoo chavis- Zydeco Hee-Haw 
TTITLE12=ricky bearband the cajun ramblers five- That's What Makes The Cajun Dance 
TTITLE13=don montoucet and the wandering aces- Hicks Wagon Wheel Special 
TTITLE14=camey doucet with wayne toups and the crowley aces- Me And My Cousin 
TTITLE15=ardoin brothers orchestra- Mamou Hot Step 
TTITLE16=ronnie fruge and the cajun kings- L'Annee Tu Partit 
TTITLE17=boozoo chavis- Jolie Catan 
TTITLE18=cajun grass band- La Cravat 
TTITLE19=balfa brothers orchestra- Lacassine Special 
TTITLE20=ardoin family orchestra with dewey balfa- Johnny Can't Dance 
TTITLE21=sheryl cormier with blackie forestier and the cajun aces- Sheryl's Special 
EXTD=YEAR: 1992
EXTT0=
EXTT1=
EXTT2=
EXTT3=
EXTT4=
EXTT5=
EXTT6=
EXTT7=
EXTT8=
EXTT9=
EXTT10=
EXTT11=
EXTT12=
EXTT13=
EXTT14=
EXTT15=
EXTT16=
EXTT17=
EXTT18=
EXTT19=
EXTT20=
EXTT21=
PLAYORDER=
